<svg id="Capa_1" data-name="Capa 1" xmlns="http://www.w3.org/2000/svg" viewBox="0 0 60.73 60.73"><defs><style>.cls-1{fill:#fff;}</style></defs><title>facebook</title><path class="cls-1" d="M57.38,0h-54A3.35,3.35,0,0,0,0,3.35v54a3.35,3.35,0,0,0,3.35,3.35H32.44V37.21H24.53V28.05h7.91V21.29c0-7.85,4.79-12.12,11.79-12.12a65.45,65.45,0,0,1,7.07.36v8.2H46.44c-3.8,0-4.54,1.81-4.54,4.46V28H51L49.8,37.21H41.9V60.73H57.38a3.35,3.35,0,0,0,3.35-3.35v-54A3.35,3.35,0,0,0,57.38,0Z" transform="translate(0 0)"/></svg>